<svg xmlns="http://www.w3.org/2000/svg" viewBox="0 0 61 21" height="24" width="70">
    <path d="M0,5.148C0,2.304 2.304,0 5.148,0L55.396,0C58.24,0 60.544,2.304 60.544,5.148L60.544,15.46C60.544,18.304 58.24,20.608 55.396,20.608L5.163,20.608C2.318,20.608 0.014,18.304 0.014,15.46L0.014,5.148L0,5.148Z"
          style="fill:rgb(234,82,86);"/>
    <path d="M11.605,13.298C13.255,13.298 14.592,11.961 14.592,10.311C14.592,8.661 13.255,7.324 11.605,7.324C9.956,7.324 8.619,8.661 8.619,10.311C8.619,11.961 9.956,13.298 11.605,13.298Z"
          style="fill:white;"/>
    <path d="M5.163,10.311C5.163,13.867 8.05,16.754 11.605,16.754C15.161,16.754 18.048,13.867 18.048,10.311C18.048,6.756 15.161,3.868 11.605,3.868C8.05,3.868 5.163,6.756 5.163,10.311ZM17.109,10.311C17.109,13.355 14.649,15.815 11.605,15.815C8.562,15.815 6.101,13.355 6.101,10.311C6.101,7.268 8.562,4.807 11.605,4.807C14.649,4.793 17.109,7.268 17.109,10.311Z"
          style="fill:white;"/>
    <path d="M22.514,15.46L29.312,15.46L29.312,13.141L25.173,13.141L25.173,5.148L22.514,5.148L22.514,15.46Z"
          style="fill:white;"/>
    <rect x="31.317" y="5.148" width="2.66" height="10.311" style="fill:white;"/>
    <path d="M39.225,15.46L42.567,15.46L46.464,5.148L43.449,5.148L40.903,12.587L38.372,5.148L35.356,5.148L39.225,15.46Z"
          style="fill:white;"/>
    <path d="M47.844,15.46L55.41,15.46L55.41,13.212L50.503,13.212L50.503,11.364L55.296,11.364L55.296,9.102L50.503,9.102L50.503,7.381L55.41,7.381L55.41,5.134L47.844,5.134L47.844,15.46Z"
          style="fill:white;"/>
</svg>
